<?xml version="1.0" encoding="utf-8"?>
<!-- Generator: Adobe Illustrator 26.5.0, SVG Export Plug-In . SVG Version: 6.00 Build 0)  -->
<svg version="1.1" id="Layer_1" xmlns="http://www.w3.org/2000/svg" xmlns:xlink="http://www.w3.org/1999/xlink" x="0px" y="0px"
	 viewBox="0 0 16 16" style="enable-background:new 0 0 16 16;" xml:space="preserve">
<style type="text/css">
	.st0{fill:#E08828;}
</style>
<path class="st0" d="M6,12.5C6,12.2,6.2,12,6.5,12h3c0.3,0,0.5,0.2,0.5,0.5S9.8,13,9.5,13h-3C6.2,13,6,12.8,6,12.5z M3,8.1
	c0-1.3,1.2-2.3,2.5-2.2C7.2,6,8.8,6,10.5,5.9C11.8,5.8,13,6.8,13,8.1v1.2c0,0.5-0.3,0.9-0.8,0.9c-0.8,0.1-2.3,0.3-4.2,0.3
	s-3.4-0.2-4.2-0.3C3.3,10.1,3,9.7,3,9.2V8.1z M7.5,7.2c-0.1,0-0.2,0-0.2,0.1L6.4,8.2C5.8,8.2,5.2,8.1,4.5,8C4.4,8,4.3,8.1,4.3,8.2
	c0,0.1,0.1,0.2,0.2,0.3c0.6,0.1,1.2,0.1,2,0.2c0.1,0,0.1,0,0.2-0.1l0.8-0.7l0.8,1.7c0.1,0.1,0.2,0.2,0.3,0.1c0,0,0,0,0.1-0.1l0.9-1
	c0.6,0,1.3-0.1,1.9-0.2c0.1,0,0.2-0.2,0.2-0.3c0-0.1-0.1-0.2-0.3-0.2c-0.5,0.1-1.2,0.1-2,0.2c-0.1,0-0.1,0-0.2,0.1L8.6,9.1L7.7,7.4
	C7.7,7.3,7.6,7.2,7.5,7.2z"/>
<path class="st0" d="M8.5,1.9C9,1.6,9.1,1,8.9,0.5C8.6,0,8-0.1,7.5,0.1S6.9,1,7.1,1.5c0.1,0.2,0.2,0.3,0.4,0.4V3h-2C3,3,1,5,1,7.5V8
	C0.4,8,0,8.4,0,9v2c0,0.6,0.4,1,1,1v1c0,1.1,0.9,2,2,2h10c1.1,0,2-0.9,2-2v-1c0.6,0,1-0.4,1-1V9c0-0.6-0.4-1-1-1V7.5
	C15,5,13,3,10.5,3h-2V1.9z M14,7.5V13c0,0.6-0.4,1-1,1H3c-0.6,0-1-0.4-1-1V7.5C2,5.6,3.6,4,5.5,4h5C12.4,4,14,5.6,14,7.5z"/>
</svg>
